<?xml version="1.0" encoding="iso-8859-1"?>
<!-- Generator: Adobe Illustrator 19.0.0, SVG Export Plug-In . SVG Version: 6.00 Build 0)  -->
<svg version="1.1" id="Layer_1" xmlns="http://www.w3.org/2000/svg" xmlns:xlink="http://www.w3.org/1999/xlink" x="0px" y="0px"
	 viewBox="0 0 512 512" style="enable-background:new 0 0 512 512;" xml:space="preserve">
<g>
	<g>
		<path d="M354.789,276.122c-7.411,0-14.73,0.681-21.909,2.031V0H39.273v497.666l146.804-106.045l57.418,41.477
			c7.64,21.712,21.76,41.117,40.207,55.072C304.307,503.76,328.889,512,354.789,512c65.031,0,117.939-52.907,117.939-117.939
			C472.728,329.029,419.82,276.122,354.789,276.122z M266.306,316.086c-0.348,0.395-0.692,0.793-1.034,1.194
			c-0.554,0.646-1.1,1.3-1.641,1.958c-0.327,0.399-0.655,0.797-0.977,1.201c-0.571,0.715-1.131,1.441-1.686,2.17
			c-0.27,0.354-0.544,0.704-0.811,1.063c-0.811,1.089-1.608,2.19-2.383,3.31c-0.831,1.2-1.635,2.413-2.418,3.636
			c-0.259,0.405-0.503,0.819-0.758,1.228c-0.513,0.823-1.026,1.646-1.517,2.481c-0.293,0.496-0.568,1-0.853,1.5
			c-0.432,0.757-0.864,1.513-1.278,2.278c-0.292,0.539-0.567,1.086-0.851,1.628c-0.383,0.737-0.768,1.472-1.135,2.216
			c-0.28,0.567-0.547,1.14-0.817,1.712c-0.346,0.73-0.691,1.46-1.021,2.196c-0.263,0.587-0.515,1.178-0.769,1.768
			c-0.313,0.731-0.625,1.464-0.924,2.201c-0.243,0.601-0.478,1.206-0.712,1.81c-0.284,0.737-0.563,1.473-0.832,2.215
			c-0.223,0.613-0.438,1.229-0.65,1.845c-0.255,0.742-0.504,1.486-0.744,2.234c-0.2,0.622-0.395,1.245-0.585,1.871
			c-0.228,0.751-0.446,1.507-0.659,2.263c-0.177,0.628-0.351,1.256-0.517,1.887c-0.201,0.763-0.39,1.529-0.575,2.296
			c-0.153,0.631-0.305,1.262-0.447,1.895c-0.174,0.777-0.334,1.559-0.493,2.342c-0.127,0.629-0.258,1.256-0.375,1.887
			c-0.148,0.799-0.28,1.603-0.412,2.406c-0.101,0.62-0.209,1.238-0.301,1.86c-0.123,0.832-0.227,1.668-0.331,2.503
			c-0.075,0.599-0.159,1.195-0.226,1.796c-0.099,0.895-0.176,1.796-0.254,2.696c-0.048,0.544-0.107,1.086-0.146,1.631
			c-0.079,1.08-0.133,2.165-0.183,3.25c-0.017,0.369-0.046,0.736-0.06,1.106c-0.001,0.023-0.003,0.046-0.004,0.069l-50.853-36.733
			L70.619,436.353V31.347h230.913v257.455c-0.388,0.196-0.767,0.405-1.153,0.605c-0.463,0.24-0.926,0.482-1.385,0.728
			c-0.78,0.418-1.551,0.849-2.319,1.283c-0.409,0.231-0.819,0.458-1.225,0.693c-0.997,0.58-1.983,1.177-2.961,1.785
			c-0.162,0.1-0.328,0.195-0.489,0.297c-1.127,0.708-2.239,1.439-3.342,2.185c-0.364,0.247-0.721,0.503-1.081,0.753
			c-0.744,0.516-1.485,1.036-2.216,1.568c-0.419,0.305-0.833,0.618-1.248,0.928c-0.668,0.501-1.331,1.006-1.987,1.52
			c-0.42,0.329-0.839,0.66-1.255,0.995c-0.655,0.528-1.304,1.065-1.948,1.607c-0.389,0.327-0.779,0.652-1.165,0.984
			c-0.725,0.626-1.44,1.266-2.149,1.91c-0.284,0.258-0.575,0.51-0.857,0.771c-0.977,0.904-1.94,1.824-2.887,2.763
			c-0.237,0.235-0.467,0.479-0.702,0.716c-0.713,0.718-1.421,1.442-2.117,2.18c-0.337,0.358-0.669,0.724-1.003,1.087
			C267.458,314.795,266.877,315.436,266.306,316.086z M354.789,480.653c-37.995,0-72.116-25.4-82.978-61.769
			c-2.398-8.03-3.614-16.382-3.614-24.823c0-35.785,21.5-67.407,54.773-80.563c10.121-4.002,20.827-6.03,31.82-6.03
			c47.747,0,86.592,38.845,86.592,86.593C441.381,441.808,402.535,480.653,354.789,480.653z"/>
	</g>
</g>
<g>
	<g>
		<rect x="97.123" y="61.359" width="179.022" height="31.347"/>
	</g>
</g>
<g>
	<g>
		<rect x="97.123" y="120.696" width="179.022" height="31.347"/>
	</g>
</g>
<g>
	<g>
		<polygon points="370.462,378.388 370.462,338.241 339.115,338.241 339.115,378.388 300.972,378.388 300.972,409.735 
			339.115,409.735 339.115,449.881 370.462,449.881 370.462,409.735 408.604,409.735 408.604,378.388 		"/>
	</g>
</g>
<g>
</g>
<g>
</g>
<g>
</g>
<g>
</g>
<g>
</g>
<g>
</g>
<g>
</g>
<g>
</g>
<g>
</g>
<g>
</g>
<g>
</g>
<g>
</g>
<g>
</g>
<g>
</g>
<g>
</g>
</svg>
