<?xml version="1.0" encoding="utf-8"?>
<!-- Generator: Adobe Illustrator 21.0.0, SVG Export Plug-In . SVG Version: 6.00 Build 0)  -->
<svg version="1.1" id="Layer_1" xmlns="http://www.w3.org/2000/svg" xmlns:xlink="http://www.w3.org/1999/xlink" x="0px" y="0px"
	 viewBox="0 0 750 1334" style="enable-background:new 0 0 750 1334;" xml:space="preserve">
<style type="text/css">
	.st0{fill:none;}
	.st1{fill:#FFFFFF;}
	.st2{font-family:'IRSina';}
	.st3{font-size:62px;}
	.st4{fill:#D3D3D3;}
	.st5{fill:#FCFAFA;}
</style>
<rect x="98.5" y="370.8" class="st0" width="626.2" height="600"/>
<text transform="matrix(1 0 0 1 98.4614 406.6045)" class="st1 st2 st3">تکلک</text>
<rect x="96.5" y="370.8" class="st0" width="626.2" height="600"/>
<text transform="matrix(1 0 0 1 96.4614 406.6045)" class="st1 st2 st3">تکلک</text>
<g>
	<polygon class="st4" points="159.9,377 191.9,377 197.1,377 197.1,368 196.8,368 159.9,368 159.9,376.7 	"/>
	<polygon points="171.3,377 167.3,377 171.1,368 175.1,368 	"/>
	<polygon points="163.9,377 159.9,377 163.7,368 167.7,368 	"/>
	<polygon points="178.6,377 174.6,377 178.4,368 182.4,368 	"/>
	<polygon points="185.9,377 181.9,377 185.7,368 189.7,368 	"/>
	<polygon points="193.3,377 189.3,377 193.1,368 197.1,368 	"/>
</g>
<g>
	<polygon class="st4" points="159.9,381 191.9,381 197.1,381 197.1,390 196.8,390 159.9,390 159.9,381.3 	"/>
	<polygon points="171.3,381 167.3,381 171.1,390 175.1,390 	"/>
	<polygon points="163.9,381 159.9,381 163.7,390 167.7,390 	"/>
	<polygon points="178.6,381 174.6,381 178.4,390 182.4,390 	"/>
	<polygon points="185.9,381 181.9,381 185.7,390 189.7,390 	"/>
	<polygon points="193.3,381 189.3,381 193.1,390 197.1,390 	"/>
</g>
<circle class="st1" cx="131" cy="376" r="6"/>
<g>
	<path class="st4" d="M116.6,380c2.4,2.3,6.3,2.3,8.7,0s2.4-6,0-8.3c-2.4-2.3-6.3-2.3-8.7,0C114.2,374,114.2,377.8,116.6,380z"/>
	<ellipse cx="122.2" cy="372.5" rx="1.4" ry="1.4"/>
	<ellipse cx="118.4" cy="373.1" rx="1.4" ry="1.4"/>
	<ellipse cx="117.1" cy="376.6" rx="1.4" ry="1.4"/>
	<ellipse cx="119.7" cy="379.4" rx="1.4" ry="1.4"/>
	<ellipse cx="123.4" cy="378.7" rx="1.4" ry="1.4"/>
	<ellipse cx="124.7" cy="375.2" rx="1.4" ry="1.4"/>
	<ellipse cx="120.9" cy="376" rx="1.3" ry="1.3"/>
	<ellipse class="st5" cx="120.9" cy="376" rx="0.8" ry="0.8"/>
</g>
</svg>
