<?xml version="1.0" encoding="iso-8859-1"?>
<!-- Generator: Adobe Illustrator 19.0.0, SVG Export Plug-In . SVG Version: 6.00 Build 0)  -->
<svg version="1.1" id="Layer_1" xmlns="http://www.w3.org/2000/svg" xmlns:xlink="http://www.w3.org/1999/xlink" x="0px" y="0px"
	 viewBox="0 0 440.248 440.248" style="enable-background:new 0 0 440.248 440.248;" xml:space="preserve">
<g>
	<path d="M126.195,150c41.355,0,75-33.645,75-75s-33.645-75-75-75s-75,33.645-75,75S84.84,150,126.195,150z M126.195,30
		c24.813,0,45,20.187,45,45s-20.187,45-45,45s-45-20.187-45-45S101.382,30,126.195,30z"/>
	<path d="M356.486,108.82L229.576,235.729C206.944,201.327,168.313,180,126.195,180c-68.236,0-123.75,55.514-123.75,123.75v15
		h144.11l-6.656,6.656l-33.524,114.842l114.842-33.525l216.586-216.585L356.486,108.82z M395.376,190.138l-28.055,28.054
		l-38.891-38.891l28.055-28.054L395.376,190.138z M33.644,288.75C40.845,244.162,79.606,210,126.195,210
		c34.024,0,65.053,18.367,81.578,47.532l-31.218,31.218H33.644z M205.436,380.078l-54.924,16.034l16.033-54.924l140.673-140.673
		l38.891,38.891L205.436,380.078z"/>
</g>
<g>
</g>
<g>
</g>
<g>
</g>
<g>
</g>
<g>
</g>
<g>
</g>
<g>
</g>
<g>
</g>
<g>
</g>
<g>
</g>
<g>
</g>
<g>
</g>
<g>
</g>
<g>
</g>
<g>
</g>
</svg>
